<svg width="210" height="49" viewBox="0 0 210 49" fill="none" xmlns="http://www.w3.org/2000/svg">
<rect x="1" y="1" width="208" height="47" rx="16" fill="white" stroke="url(#paint0_linear_401_39)" stroke-width="2"/>
<path d="M43.746 19.172C44.2033 19.172 44.5907 19.186 44.908 19.214C45.2347 19.2327 45.5333 19.2653 45.804 19.312C46.0747 19.3587 46.3547 19.424 46.644 19.508L46.476 21.076C46.168 21.0573 45.8833 21.0433 45.622 21.034C45.37 21.0247 45.0947 21.02 44.796 21.02C44.5067 21.0107 44.1567 21.006 43.746 21.006C43.27 21.006 42.8967 21.0993 42.626 21.286C42.3647 21.4727 42.178 21.7993 42.066 22.266C41.954 22.7233 41.898 23.358 41.898 24.17C41.898 24.982 41.954 25.6213 42.066 26.088C42.178 26.5453 42.3647 26.8673 42.626 27.054C42.8967 27.2407 43.27 27.334 43.746 27.334C44.39 27.334 44.9313 27.3247 45.37 27.306C45.8087 27.2873 46.2427 27.2547 46.672 27.208L46.854 28.776C46.406 28.916 45.9487 29.014 45.482 29.07C45.0153 29.1353 44.4367 29.168 43.746 29.168C42.7473 29.168 41.9447 29.0093 41.338 28.692C40.7407 28.3653 40.3067 27.838 40.036 27.11C39.7747 26.382 39.644 25.402 39.644 24.17C39.644 22.938 39.7747 21.958 40.036 21.23C40.3067 20.502 40.7407 19.9793 41.338 19.662C41.9447 19.3353 42.7473 19.172 43.746 19.172ZM52.0498 19.144C52.8151 19.144 53.4638 19.228 53.9958 19.396C54.5278 19.5547 54.9524 19.8253 55.2698 20.208C55.5964 20.5813 55.8344 21.0947 55.9838 21.748C56.1331 22.392 56.2078 23.1993 56.2078 24.17C56.2078 25.1407 56.1331 25.9527 55.9838 26.606C55.8344 27.25 55.5964 27.7633 55.2698 28.146C54.9524 28.5193 54.5278 28.79 53.9958 28.958C53.4638 29.1167 52.8151 29.196 52.0498 29.196C51.2844 29.196 50.6358 29.1167 50.1038 28.958C49.5718 28.79 49.1424 28.5193 48.8158 28.146C48.4891 27.7633 48.2511 27.25 48.1018 26.606C47.9524 25.9527 47.8778 25.1407 47.8778 24.17C47.8778 23.1993 47.9524 22.392 48.1018 21.748C48.2511 21.0947 48.4891 20.5813 48.8158 20.208C49.1424 19.8253 49.5718 19.5547 50.1038 19.396C50.6358 19.228 51.2844 19.144 52.0498 19.144ZM52.0498 20.838C51.5551 20.838 51.1678 20.936 50.8878 21.132C50.6171 21.328 50.4211 21.6687 50.2998 22.154C50.1878 22.63 50.1318 23.302 50.1318 24.17C50.1318 25.0287 50.1878 25.7007 50.2998 26.186C50.4211 26.6713 50.6171 27.012 50.8878 27.208C51.1678 27.404 51.5551 27.502 52.0498 27.502C52.5351 27.502 52.9131 27.404 53.1838 27.208C53.4638 27.012 53.6598 26.6713 53.7718 26.186C53.8931 25.7007 53.9538 25.0287 53.9538 24.17C53.9538 23.302 53.8931 22.63 53.7718 22.154C53.6598 21.6687 53.4638 21.328 53.1838 21.132C52.9131 20.936 52.5351 20.838 52.0498 20.838ZM67.8764 19.34C68.3804 19.34 68.6418 19.6013 68.6604 20.124L69.0244 29H67.0504L66.7284 20.992H66.4764L64.9224 27.012C64.8384 27.46 64.5584 27.684 64.0824 27.684H62.7384C62.2624 27.684 61.9731 27.46 61.8704 27.012L60.3164 20.992H60.0784L59.7844 29H57.7964L58.1604 20.124C58.1791 19.6013 58.4451 19.34 58.9584 19.34H60.9604C61.4178 19.34 61.6978 19.5687 61.8004 20.026L63.0464 24.884C63.1024 25.108 63.1491 25.3367 63.1864 25.57C63.2238 25.794 63.2658 26.0227 63.3124 26.256H63.4944C63.5411 26.0227 63.5831 25.794 63.6204 25.57C63.6671 25.3367 63.7138 25.1033 63.7604 24.87L64.9924 20.026C65.0858 19.5687 65.3658 19.34 65.8324 19.34H67.8764ZM72.917 19.298C73.4396 19.298 73.967 19.3027 74.499 19.312C75.031 19.312 75.5536 19.3213 76.067 19.34C76.5803 19.3587 77.061 19.3913 77.509 19.438L77.411 20.992H73.701C73.4676 20.992 73.2903 21.0527 73.169 21.174C73.057 21.2953 73.001 21.4727 73.001 21.706V26.634C73.001 26.8673 73.057 27.0447 73.169 27.166C73.2903 27.2873 73.4676 27.348 73.701 27.348H77.411L77.509 28.902C77.061 28.9393 76.5803 28.972 76.067 29C75.5536 29.0187 75.031 29.028 74.499 29.028C73.967 29.0373 73.4396 29.042 72.917 29.042C72.301 29.042 71.8016 28.8647 71.419 28.51C71.0456 28.146 70.859 27.6747 70.859 27.096V21.244C70.859 20.656 71.0456 20.1847 71.419 19.83C71.8016 19.4753 72.301 19.298 72.917 19.298ZM71.111 23.218H76.893V24.73H71.111V23.218ZM82.847 19.172C83.3044 19.172 83.6917 19.186 84.009 19.214C84.3357 19.2327 84.6344 19.2653 84.905 19.312C85.1757 19.3587 85.4557 19.424 85.745 19.508L85.577 21.076C85.269 21.0573 84.9844 21.0433 84.723 21.034C84.471 21.0247 84.1957 21.02 83.897 21.02C83.6077 21.0107 83.2577 21.006 82.847 21.006C82.371 21.006 81.9977 21.0993 81.727 21.286C81.4657 21.4727 81.279 21.7993 81.167 22.266C81.055 22.7233 80.999 23.358 80.999 24.17C80.999 24.982 81.055 25.6213 81.167 26.088C81.279 26.5453 81.4657 26.8673 81.727 27.054C81.9977 27.2407 82.371 27.334 82.847 27.334C83.491 27.334 84.0324 27.3247 84.471 27.306C84.9097 27.2873 85.3437 27.2547 85.773 27.208L85.955 28.776C85.507 28.916 85.0497 29.014 84.583 29.07C84.1164 29.1353 83.5377 29.168 82.847 29.168C81.8484 29.168 81.0457 29.0093 80.439 28.692C79.8417 28.3653 79.4077 27.838 79.137 27.11C78.8757 26.382 78.745 25.402 78.745 24.17C78.745 22.938 78.8757 21.958 79.137 21.23C79.4077 20.502 79.8417 19.9793 80.439 19.662C81.0457 19.3353 81.8484 19.172 82.847 19.172ZM89.4255 19.298C89.9482 19.298 90.4755 19.3027 91.0075 19.312C91.5395 19.312 92.0622 19.3213 92.5755 19.34C93.0888 19.3587 93.5695 19.3913 94.0175 19.438L93.9195 20.992H90.2095C89.9762 20.992 89.7988 21.0527 89.6775 21.174C89.5655 21.2953 89.5095 21.4727 89.5095 21.706V26.634C89.5095 26.8673 89.5655 27.0447 89.6775 27.166C89.7988 27.2873 89.9762 27.348 90.2095 27.348H93.9195L94.0175 28.902C93.5695 28.9393 93.0888 28.972 92.5755 29C92.0622 29.0187 91.5395 29.028 91.0075 29.028C90.4755 29.0373 89.9482 29.042 89.4255 29.042C88.8095 29.042 88.3102 28.8647 87.9275 28.51C87.5542 28.146 87.3675 27.6747 87.3675 27.096V21.244C87.3675 20.656 87.5542 20.1847 87.9275 19.83C88.3102 19.4753 88.8095 19.298 89.4255 19.298ZM87.6195 23.218H93.4015V24.73H87.6195V23.218ZM102.543 19.2C103.448 19.2 104.157 19.2933 104.671 19.48C105.184 19.6667 105.548 19.9887 105.763 20.446C105.987 20.9033 106.099 21.5427 106.099 22.364C106.099 23.1853 105.991 23.8247 105.777 24.282C105.571 24.7393 105.231 25.0613 104.755 25.248C104.279 25.4253 103.635 25.514 102.823 25.514C102.393 25.514 101.973 25.4953 101.563 25.458C101.152 25.4207 100.769 25.374 100.415 25.318C100.06 25.262 99.7567 25.206 99.5047 25.15C99.2527 25.0847 99.0801 25.024 98.9867 24.968L99.0287 23.904C99.5794 23.904 100.149 23.904 100.737 23.904C101.334 23.904 101.922 23.904 102.501 23.904C102.874 23.8947 103.163 23.848 103.369 23.764C103.583 23.68 103.733 23.526 103.817 23.302C103.91 23.078 103.957 22.7653 103.957 22.364C103.957 21.9533 103.91 21.636 103.817 21.412C103.733 21.188 103.583 21.034 103.369 20.95C103.163 20.8567 102.874 20.81 102.501 20.81C101.642 20.81 100.905 20.8147 100.289 20.824C99.6727 20.8333 99.2574 20.852 99.0427 20.88L98.8327 19.34C99.2247 19.2933 99.5934 19.2607 99.9387 19.242C100.284 19.2233 100.657 19.214 101.059 19.214C101.469 19.2047 101.964 19.2 102.543 19.2ZM100.975 19.34V29H98.8327V19.34H100.975ZM111.477 19.144C112.242 19.144 112.891 19.228 113.423 19.396C113.955 19.5547 114.38 19.8253 114.697 20.208C115.024 20.5813 115.262 21.0947 115.411 21.748C115.56 22.392 115.635 23.1993 115.635 24.17C115.635 25.1407 115.56 25.9527 115.411 26.606C115.262 27.25 115.024 27.7633 114.697 28.146C114.38 28.5193 113.955 28.79 113.423 28.958C112.891 29.1167 112.242 29.196 111.477 29.196C110.712 29.196 110.063 29.1167 109.531 28.958C108.999 28.79 108.57 28.5193 108.243 28.146C107.916 27.7633 107.678 27.25 107.529 26.606C107.38 25.9527 107.305 25.1407 107.305 24.17C107.305 23.1993 107.38 22.392 107.529 21.748C107.678 21.0947 107.916 20.5813 108.243 20.208C108.57 19.8253 108.999 19.5547 109.531 19.396C110.063 19.228 110.712 19.144 111.477 19.144ZM111.477 20.838C110.982 20.838 110.595 20.936 110.315 21.132C110.044 21.328 109.848 21.6687 109.727 22.154C109.615 22.63 109.559 23.302 109.559 24.17C109.559 25.0287 109.615 25.7007 109.727 26.186C109.848 26.6713 110.044 27.012 110.315 27.208C110.595 27.404 110.982 27.502 111.477 27.502C111.962 27.502 112.34 27.404 112.611 27.208C112.891 27.012 113.087 26.6713 113.199 26.186C113.32 25.7007 113.381 25.0287 113.381 24.17C113.381 23.302 113.32 22.63 113.199 22.154C113.087 21.6687 112.891 21.328 112.611 21.132C112.34 20.936 111.962 20.838 111.477 20.838ZM121.13 19.2C121.979 19.2 122.665 19.2887 123.188 19.466C123.72 19.634 124.107 19.928 124.35 20.348C124.602 20.7587 124.728 21.3327 124.728 22.07C124.728 22.518 124.667 22.9147 124.546 23.26C124.434 23.596 124.242 23.8667 123.972 24.072C123.701 24.2773 123.332 24.408 122.866 24.464V24.534C123.034 24.562 123.206 24.6273 123.384 24.73C123.57 24.8327 123.743 24.9867 123.902 25.192C124.06 25.388 124.177 25.654 124.252 25.99L125.092 29H122.838L122.096 26.06C122.012 25.7427 121.886 25.5233 121.718 25.402C121.559 25.2807 121.335 25.22 121.046 25.22C120.411 25.22 119.874 25.22 119.436 25.22C119.006 25.2107 118.642 25.2013 118.344 25.192C118.054 25.1827 117.793 25.1733 117.56 25.164L117.602 23.61H121.088C121.461 23.61 121.755 23.5727 121.97 23.498C122.194 23.414 122.348 23.2693 122.432 23.064C122.525 22.8587 122.572 22.574 122.572 22.21C122.572 21.8367 122.525 21.552 122.432 21.356C122.348 21.1507 122.194 21.0107 121.97 20.936C121.755 20.852 121.461 20.81 121.088 20.81C120.21 20.81 119.468 20.8147 118.862 20.824C118.255 20.8333 117.84 20.8473 117.616 20.866L117.406 19.34C117.798 19.2933 118.166 19.2607 118.512 19.242C118.857 19.2233 119.235 19.214 119.646 19.214C120.056 19.2047 120.551 19.2 121.13 19.2ZM119.52 19.34V29H117.406V19.34H119.52ZM134.064 19.34C134.241 19.34 134.395 19.3913 134.526 19.494C134.666 19.5967 134.759 19.732 134.806 19.9L137.606 29H135.422L133.448 21.902C133.41 21.7433 133.373 21.5847 133.336 21.426C133.298 21.258 133.266 21.0993 133.238 20.95H132.86C132.832 21.0993 132.799 21.258 132.762 21.426C132.734 21.5847 132.696 21.7433 132.65 21.902L130.676 29H128.478L131.292 19.9C131.338 19.732 131.427 19.5967 131.558 19.494C131.698 19.3913 131.856 19.34 132.034 19.34H134.064ZM135.548 24.842V26.452H130.536V24.842H135.548ZM142.498 19.144C143.263 19.144 143.912 19.228 144.444 19.396C144.976 19.5547 145.405 19.8253 145.732 20.208C146.059 20.5813 146.292 21.0947 146.432 21.748C146.581 22.392 146.656 23.1993 146.656 24.17C146.656 25.1407 146.581 25.9527 146.432 26.606C146.292 27.25 146.059 27.7633 145.732 28.146C145.405 28.5193 144.976 28.79 144.444 28.958C143.912 29.1167 143.263 29.196 142.498 29.196C141.733 29.196 141.084 29.1167 140.552 28.958C140.02 28.79 139.591 28.5193 139.264 28.146C138.937 27.7633 138.699 27.25 138.55 26.606C138.41 25.9527 138.34 25.1407 138.34 24.17C138.34 23.1993 138.41 22.392 138.55 21.748C138.699 21.0947 138.937 20.5813 139.264 20.208C139.591 19.8253 140.02 19.5547 140.552 19.396C141.084 19.228 141.733 19.144 142.498 19.144ZM141.798 29.476C142.423 29.728 143.077 29.9287 143.758 30.078C144.439 30.2367 145.172 30.372 145.956 30.484L145.396 32.332C144.556 32.1267 143.795 31.87 143.114 31.562C142.433 31.254 141.826 30.9273 141.294 30.582L141.798 29.476ZM142.498 20.838C142.013 20.838 141.63 20.936 141.35 21.132C141.07 21.328 140.874 21.6687 140.762 22.154C140.65 22.63 140.594 23.302 140.594 24.17C140.594 25.0287 140.65 25.7007 140.762 26.186C140.874 26.6713 141.07 27.012 141.35 27.208C141.63 27.404 142.013 27.502 142.498 27.502C142.983 27.502 143.361 27.404 143.632 27.208C143.912 27.012 144.108 26.6713 144.22 26.186C144.341 25.7007 144.402 25.0287 144.402 24.17C144.402 23.302 144.341 22.63 144.22 22.154C144.108 21.6687 143.912 21.328 143.632 21.132C143.361 20.936 142.983 20.838 142.498 20.838ZM156.155 19.34V25.15C156.155 26.13 156.033 26.9187 155.791 27.516C155.548 28.104 155.147 28.5333 154.587 28.804C154.036 29.0653 153.299 29.196 152.375 29.196C151.395 29.196 150.611 29.0653 150.023 28.804C149.435 28.5333 149.01 28.104 148.749 27.516C148.487 26.9187 148.357 26.13 148.357 25.15V19.34H150.499V25.15C150.499 25.7567 150.55 26.2327 150.653 26.578C150.765 26.914 150.951 27.152 151.213 27.292C151.474 27.432 151.824 27.502 152.263 27.502C152.701 27.502 153.047 27.432 153.299 27.292C153.56 27.152 153.742 26.914 153.845 26.578C153.957 26.2327 154.013 25.7567 154.013 25.15V19.34H156.155ZM160.306 19.34V29H158.178V19.34H160.306Z" fill="#0F1322"/>
<defs>
<linearGradient id="paint0_linear_401_39" x1="2" y1="24" x2="208" y2="24" gradientUnits="userSpaceOnUse">
<stop stop-color="#619CC7"/>
<stop offset="0.265625" stop-color="#8E83B3"/>
<stop offset="0.447917" stop-color="#C0679D"/>
<stop offset="0.588542" stop-color="#D45B93"/>
<stop offset="0.822917" stop-color="#E79C7F"/>
<stop offset="1" stop-color="#A3B27F"/>
</linearGradient>
</defs>
</svg>
