<svg width="210" height="49" viewBox="0 0 210 49" fill="none" xmlns="http://www.w3.org/2000/svg">
<rect x="1" y="1" width="208" height="47" rx="16" fill="white" stroke="url(#paint0_linear_401_51)" stroke-width="2"/>
<path d="M61.108 19.34V29H58.98V19.34H61.108ZM71.3699 19.34V28.23C71.3699 28.7433 71.1132 29 70.5999 29H69.4239C69.1906 29 69.0132 28.9487 68.8919 28.846C68.7706 28.734 68.6586 28.5707 68.5559 28.356L65.8819 23.288C65.7699 23.0733 65.6579 22.8353 65.5459 22.574C65.4432 22.3127 65.3546 22.0607 65.2799 21.818H65.1259C65.1539 22.07 65.1772 22.3267 65.1959 22.588C65.2146 22.84 65.2239 23.092 65.2239 23.344V29H63.1939V20.11C63.1939 19.5967 63.4552 19.34 63.9779 19.34H65.1399C65.3639 19.34 65.5319 19.396 65.6439 19.508C65.7652 19.6107 65.8819 19.7693 65.9939 19.984L68.5839 24.898C68.6959 25.1127 68.8126 25.3507 68.9339 25.612C69.0552 25.8733 69.1719 26.144 69.2839 26.424H69.4519C69.4239 26.144 69.4006 25.8733 69.3819 25.612C69.3726 25.3413 69.3679 25.0753 69.3679 24.814L69.3539 19.34H71.3699ZM75.4954 19.298C75.9901 19.298 76.4941 19.3027 77.0074 19.312C77.5301 19.312 78.0387 19.326 78.5334 19.354C79.0374 19.3727 79.5041 19.4053 79.9334 19.452L79.8214 20.992H76.3214C76.0694 20.992 75.8781 21.0527 75.7474 21.174C75.6167 21.2953 75.5514 21.4727 75.5514 21.706V29H73.4094V21.272C73.4094 20.6747 73.6007 20.1987 73.9834 19.844C74.3661 19.48 74.8701 19.298 75.4954 19.298ZM73.6614 23.386H79.3034V24.898H73.6614V23.386ZM85.1794 19.144C85.9447 19.144 86.5934 19.228 87.1254 19.396C87.6574 19.5547 88.082 19.8253 88.3994 20.208C88.726 20.5813 88.964 21.0947 89.1134 21.748C89.2627 22.392 89.3374 23.1993 89.3374 24.17C89.3374 25.1407 89.2627 25.9527 89.1134 26.606C88.964 27.25 88.726 27.7633 88.3994 28.146C88.082 28.5193 87.6574 28.79 87.1254 28.958C86.5934 29.1167 85.9447 29.196 85.1794 29.196C84.414 29.196 83.7654 29.1167 83.2334 28.958C82.7014 28.79 82.272 28.5193 81.9454 28.146C81.6187 27.7633 81.3807 27.25 81.2314 26.606C81.082 25.9527 81.0074 25.1407 81.0074 24.17C81.0074 23.1993 81.082 22.392 81.2314 21.748C81.3807 21.0947 81.6187 20.5813 81.9454 20.208C82.272 19.8253 82.7014 19.5547 83.2334 19.396C83.7654 19.228 84.414 19.144 85.1794 19.144ZM85.1794 20.838C84.6847 20.838 84.2974 20.936 84.0174 21.132C83.7467 21.328 83.5507 21.6687 83.4294 22.154C83.3174 22.63 83.2614 23.302 83.2614 24.17C83.2614 25.0287 83.3174 25.7007 83.4294 26.186C83.5507 26.6713 83.7467 27.012 84.0174 27.208C84.2974 27.404 84.6847 27.502 85.1794 27.502C85.6647 27.502 86.0427 27.404 86.3134 27.208C86.5934 27.012 86.7894 26.6713 86.9014 26.186C87.0227 25.7007 87.0834 25.0287 87.0834 24.17C87.0834 23.302 87.0227 22.63 86.9014 22.154C86.7894 21.6687 86.5934 21.328 86.3134 21.132C86.0427 20.936 85.6647 20.838 85.1794 20.838ZM94.832 19.2C95.6814 19.2 96.3674 19.2887 96.89 19.466C97.422 19.634 97.8094 19.928 98.052 20.348C98.304 20.7587 98.43 21.3327 98.43 22.07C98.43 22.518 98.3694 22.9147 98.248 23.26C98.136 23.596 97.9447 23.8667 97.674 24.072C97.4034 24.2773 97.0347 24.408 96.568 24.464V24.534C96.736 24.562 96.9087 24.6273 97.086 24.73C97.2727 24.8327 97.4454 24.9867 97.604 25.192C97.7627 25.388 97.8794 25.654 97.954 25.99L98.794 29H96.54L95.798 26.06C95.714 25.7427 95.588 25.5233 95.42 25.402C95.2614 25.2807 95.0374 25.22 94.748 25.22C94.1134 25.22 93.5767 25.22 93.138 25.22C92.7087 25.2107 92.3447 25.2013 92.046 25.192C91.7567 25.1827 91.4954 25.1733 91.262 25.164L91.304 23.61H94.79C95.1634 23.61 95.4574 23.5727 95.672 23.498C95.896 23.414 96.05 23.2693 96.134 23.064C96.2274 22.8587 96.274 22.574 96.274 22.21C96.274 21.8367 96.2274 21.552 96.134 21.356C96.05 21.1507 95.896 21.0107 95.672 20.936C95.4574 20.852 95.1634 20.81 94.79 20.81C93.9127 20.81 93.1707 20.8147 92.564 20.824C91.9574 20.8333 91.542 20.8473 91.318 20.866L91.108 19.34C91.5 19.2933 91.8687 19.2607 92.214 19.242C92.5594 19.2233 92.9374 19.214 93.348 19.214C93.7587 19.2047 94.2534 19.2 94.832 19.2ZM93.222 19.34V29H91.108V19.34H93.222ZM110.21 19.34C110.714 19.34 110.976 19.6013 110.994 20.124L111.358 29H109.384L109.062 20.992H108.81L107.256 27.012C107.172 27.46 106.892 27.684 106.416 27.684H105.072C104.596 27.684 104.307 27.46 104.204 27.012L102.65 20.992H102.412L102.118 29H100.13L100.494 20.124C100.513 19.6013 100.779 19.34 101.292 19.34H103.294C103.752 19.34 104.032 19.5687 104.134 20.026L105.38 24.884C105.436 25.108 105.483 25.3367 105.52 25.57C105.558 25.794 105.6 26.0227 105.646 26.256H105.828C105.875 26.0227 105.917 25.794 105.954 25.57C106.001 25.3367 106.048 25.1033 106.094 24.87L107.326 20.026C107.42 19.5687 107.7 19.34 108.166 19.34H110.21ZM117.883 19.34C118.06 19.34 118.214 19.3913 118.345 19.494C118.485 19.5967 118.578 19.732 118.625 19.9L121.425 29H119.241L117.267 21.902C117.23 21.7433 117.192 21.5847 117.155 21.426C117.118 21.258 117.085 21.0993 117.057 20.95H116.679C116.651 21.0993 116.618 21.258 116.581 21.426C116.553 21.5847 116.516 21.7433 116.469 21.902L114.495 29H112.297L115.111 19.9C115.158 19.732 115.246 19.5967 115.377 19.494C115.517 19.3913 115.676 19.34 115.853 19.34H117.883ZM119.367 24.842V26.452H114.355V24.842H119.367ZM126.055 19.34V29H123.913V19.34H126.055ZM128.967 19.34V21.02H121.015V19.34H128.967ZM132.447 19.34V29H130.319V19.34H132.447ZM142.415 19.34L139.783 28.412C139.736 28.58 139.643 28.72 139.503 28.832C139.372 28.944 139.213 29 139.027 29H137.067C136.871 29 136.703 28.944 136.563 28.832C136.432 28.72 136.348 28.58 136.311 28.412L133.665 19.34H135.877L137.641 26.312C137.678 26.4893 137.715 26.6713 137.753 26.858C137.799 27.0353 137.837 27.2127 137.865 27.39H138.229C138.257 27.2127 138.289 27.0307 138.327 26.844C138.373 26.6573 138.42 26.4753 138.467 26.298L140.217 19.34H142.415ZM147.368 19.144C148.134 19.144 148.782 19.228 149.314 19.396C149.846 19.5547 150.271 19.8253 150.588 20.208C150.915 20.5813 151.153 21.0947 151.302 21.748C151.452 22.392 151.526 23.1993 151.526 24.17C151.526 25.1407 151.452 25.9527 151.302 26.606C151.153 27.25 150.915 27.7633 150.588 28.146C150.271 28.5193 149.846 28.79 149.314 28.958C148.782 29.1167 148.134 29.196 147.368 29.196C146.603 29.196 145.954 29.1167 145.422 28.958C144.89 28.79 144.461 28.5193 144.134 28.146C143.808 27.7633 143.57 27.25 143.42 26.606C143.271 25.9527 143.196 25.1407 143.196 24.17C143.196 23.1993 143.271 22.392 143.42 21.748C143.57 21.0947 143.808 20.5813 144.134 20.208C144.461 19.8253 144.89 19.5547 145.422 19.396C145.954 19.228 146.603 19.144 147.368 19.144ZM147.368 20.838C146.874 20.838 146.486 20.936 146.206 21.132C145.936 21.328 145.74 21.6687 145.618 22.154C145.506 22.63 145.45 23.302 145.45 24.17C145.45 25.0287 145.506 25.7007 145.618 26.186C145.74 26.6713 145.936 27.012 146.206 27.208C146.486 27.404 146.874 27.502 147.368 27.502C147.854 27.502 148.232 27.404 148.502 27.208C148.782 27.012 148.978 26.6713 149.09 26.186C149.212 25.7007 149.272 25.0287 149.272 24.17C149.272 23.302 149.212 22.63 149.09 22.154C148.978 21.6687 148.782 21.328 148.502 21.132C148.232 20.936 147.854 20.838 147.368 20.838Z" fill="#0F1322"/>
<defs>
<linearGradient id="paint0_linear_401_51" x1="2" y1="24" x2="208" y2="24" gradientUnits="userSpaceOnUse">
<stop stop-color="#619CC7"/>
<stop offset="0.265625" stop-color="#8E83B3"/>
<stop offset="0.447917" stop-color="#C0679D"/>
<stop offset="0.588542" stop-color="#D45B93"/>
<stop offset="0.822917" stop-color="#E79C7F"/>
<stop offset="1" stop-color="#A3B27F"/>
</linearGradient>
</defs>
</svg>
