<svg width="300" height="74" viewBox="0 0 300 74" fill="none" xmlns="http://www.w3.org/2000/svg">
<path d="M14.5088 5.87793C13.292 5.87793 12.2119 6.11719 11.2686 6.5957C10.3389 7.06055 9.55273 7.7373 8.91016 8.62598C8.28125 9.51465 7.80273 10.5879 7.47461 11.8457C7.14648 13.1035 6.98242 14.5186 6.98242 16.0908C6.98242 18.21 7.24219 20.0215 7.76172 21.5254C8.29492 23.0156 9.11523 24.1572 10.2227 24.9502C11.3301 25.7295 12.7588 26.1191 14.5088 26.1191C15.7256 26.1191 16.9424 25.9824 18.1592 25.709C19.3896 25.4355 20.7227 25.0459 22.1582 24.54V29.8721C20.832 30.4189 19.5264 30.8086 18.2412 31.041C16.9561 31.2871 15.5137 31.4102 13.9141 31.4102C10.8242 31.4102 8.28125 30.7744 6.28516 29.5029C4.30273 28.2178 2.83301 26.4268 1.87598 24.1299C0.918945 21.8193 0.44043 19.126 0.44043 16.0498C0.44043 13.7803 0.748047 11.7021 1.36328 9.81543C1.97852 7.92871 2.88086 6.29492 4.07031 4.91406C5.25977 3.5332 6.72949 2.4668 8.47949 1.71484C10.2295 0.962891 12.2393 0.586914 14.5088 0.586914C15.999 0.586914 17.4893 0.77832 18.9795 1.16113C20.4834 1.53027 21.9189 2.04297 23.2861 2.69922L21.2354 7.86719C20.1143 7.33398 18.9863 6.86914 17.8516 6.47266C16.7168 6.07617 15.6025 5.87793 14.5088 5.87793ZM35.613 1.01758C38.3337 1.01758 40.5759 1.3457 42.3395 2.00195C44.1169 2.6582 45.4362 3.64941 46.2975 4.97559C47.1589 6.30176 47.5895 7.97656 47.5895 10C47.5895 11.3672 47.3298 12.5635 46.8102 13.5889C46.2907 14.6143 45.6071 15.4824 44.7595 16.1934C43.9118 16.9043 42.9958 17.4854 42.0114 17.9365L50.8298 31H43.7751L36.6179 19.4951H33.2341V31H26.8766V1.01758H35.613ZM35.1618 6.22656H33.2341V14.3271H35.2848C37.3903 14.3271 38.8942 13.9785 39.7966 13.2812C40.7126 12.5703 41.1706 11.5312 41.1706 10.1641C41.1706 8.74219 40.6784 7.73047 39.694 7.12891C38.7233 6.52734 37.2126 6.22656 35.1618 6.22656ZM52.9232 31V1.01758H59.2806V31H52.9232ZM82.4151 31H65.1475V1.01758H82.4151V6.22656H71.5049V12.8096H81.6563V18.0186H71.5049V25.75H82.4151V31ZM97.8214 15.4482C97.0681 15.4482 96.3995 15.5964 95.8155 15.8926C95.24 16.1803 94.7533 16.5993 94.3555 17.1494C93.9662 17.6995 93.67 18.3639 93.4669 19.1426C93.2637 19.9212 93.1622 20.7972 93.1622 21.7705C93.1622 23.0824 93.323 24.2038 93.6446 25.1348C93.9747 26.0573 94.4825 26.764 95.168 27.2549C95.8536 27.7373 96.738 27.9785 97.8214 27.9785C98.5746 27.9785 99.3279 27.8939 100.081 27.7246C100.843 27.5553 101.668 27.3141 102.557 27.001V30.3018C101.736 30.6403 100.927 30.8815 100.132 31.0254C99.3363 31.1777 98.4434 31.2539 97.4532 31.2539C95.5404 31.2539 93.9662 30.8604 92.7305 30.0732C91.5033 29.2777 90.5935 28.1689 90.0011 26.7471C89.4086 25.3167 89.1124 23.6494 89.1124 21.7451C89.1124 20.3402 89.3028 19.0537 89.6837 17.8857C90.0645 16.7178 90.6231 15.7064 91.3595 14.8516C92.0958 13.9967 93.0056 13.3366 94.0889 12.8711C95.1723 12.4056 96.4164 12.1729 97.8214 12.1729C98.7439 12.1729 99.6664 12.2913 100.589 12.5283C101.52 12.7568 102.409 13.0742 103.255 13.4805L101.985 16.6797C101.291 16.3496 100.593 16.0618 99.8907 15.8164C99.1882 15.571 98.4984 15.4482 97.8214 15.4482ZM122.064 21.6943C122.064 23.1247 121.887 24.4281 121.531 25.6045C121.176 26.7725 120.634 27.7796 119.906 28.626C119.187 29.4723 118.273 30.124 117.164 30.5811C116.055 31.0296 114.743 31.2539 113.228 31.2539C111.713 31.2539 110.402 31.0296 109.293 30.5811C108.184 30.124 107.266 29.4723 106.538 28.626C105.819 27.7796 105.281 26.7682 104.926 25.5918C104.57 24.4154 104.392 23.1077 104.392 21.6689C104.392 19.7477 104.706 18.0762 105.332 16.6543C105.967 15.224 106.94 14.1152 108.252 13.3281C109.564 12.541 111.231 12.1475 113.254 12.1475C115.268 12.1475 116.923 12.541 118.218 13.3281C119.521 14.1152 120.486 15.224 121.112 16.6543C121.747 18.0846 122.064 19.7646 122.064 21.6943ZM108.518 21.6943C108.518 22.9893 108.679 24.1064 109.001 25.0459C109.331 25.9769 109.843 26.6963 110.537 27.2041C111.231 27.7035 112.128 27.9531 113.228 27.9531C114.346 27.9531 115.251 27.7035 115.945 27.2041C116.639 26.6963 117.143 25.9769 117.456 25.0459C117.778 24.1064 117.938 22.9893 117.938 21.6943C117.938 19.7477 117.574 18.2158 116.847 17.0986C116.119 15.9814 114.921 15.4229 113.254 15.4229C112.145 15.4229 111.239 15.6768 110.537 16.1846C109.843 16.6839 109.331 17.4033 109.001 18.3428C108.679 19.2738 108.518 20.391 108.518 21.6943ZM141.077 31H136.075L128.001 16.959H127.886C127.92 17.543 127.95 18.1312 127.975 18.7236C128.001 19.3161 128.026 19.9085 128.051 20.501C128.077 21.085 128.102 21.6732 128.128 22.2656V31H124.611V12.4395H129.575L137.636 26.3408H137.725C137.708 25.7653 137.687 25.194 137.662 24.627C137.636 24.0599 137.611 23.4928 137.586 22.9258C137.569 22.3587 137.552 21.7917 137.535 21.2246V12.4395H141.077V31ZM151.622 31H147.686V15.7148H142.646V12.4395H156.662V15.7148H151.622V31ZM175.065 21.6943C175.065 23.1247 174.887 24.4281 174.532 25.6045C174.176 26.7725 173.634 27.7796 172.907 28.626C172.187 29.4723 171.273 30.124 170.164 30.5811C169.056 31.0296 167.744 31.2539 166.229 31.2539C164.714 31.2539 163.402 31.0296 162.293 30.5811C161.185 30.124 160.266 29.4723 159.538 28.626C158.819 27.7796 158.282 26.7682 157.926 25.5918C157.571 24.4154 157.393 23.1077 157.393 21.6689C157.393 19.7477 157.706 18.0762 158.332 16.6543C158.967 15.224 159.94 14.1152 161.252 13.3281C162.564 12.541 164.231 12.1475 166.254 12.1475C168.269 12.1475 169.923 12.541 171.218 13.3281C172.521 14.1152 173.486 15.224 174.113 16.6543C174.747 18.0846 175.065 19.7646 175.065 21.6943ZM161.519 21.6943C161.519 22.9893 161.68 24.1064 162.001 25.0459C162.331 25.9769 162.843 26.6963 163.537 27.2041C164.231 27.7035 165.129 27.9531 166.229 27.9531C167.346 27.9531 168.252 27.7035 168.946 27.2041C169.64 26.6963 170.143 25.9769 170.456 25.0459C170.778 24.1064 170.939 22.9893 170.939 21.6943C170.939 19.7477 170.575 18.2158 169.847 17.0986C169.119 15.9814 167.921 15.4229 166.254 15.4229C165.145 15.4229 164.24 15.6768 163.537 16.1846C162.843 16.6839 162.331 17.4033 162.001 18.3428C161.68 19.2738 161.519 20.391 161.519 21.6943ZM188.567 25.8457C188.567 26.946 188.301 27.9023 187.768 28.7148C187.234 29.5273 186.456 30.1536 185.432 30.5938C184.416 31.0339 183.18 31.2539 181.725 31.2539C181.081 31.2539 180.451 31.2116 179.833 31.127C179.224 31.0423 178.635 30.9196 178.068 30.7588C177.51 30.5895 176.977 30.3822 176.469 30.1367V26.4805C177.349 26.8698 178.263 27.221 179.211 27.5342C180.159 27.8473 181.098 28.0039 182.029 28.0039C182.673 28.0039 183.189 27.9193 183.578 27.75C183.976 27.5807 184.264 27.348 184.441 27.0518C184.619 26.7555 184.708 26.417 184.708 26.0361C184.708 25.5706 184.552 25.1729 184.238 24.8428C183.925 24.5127 183.494 24.2038 182.943 23.916C182.402 23.6283 181.788 23.3193 181.103 22.9893C180.671 22.7861 180.201 22.5407 179.693 22.2529C179.186 21.9567 178.703 21.597 178.246 21.1738C177.789 20.7507 177.413 20.2386 177.116 19.6377C176.829 19.0283 176.685 18.3005 176.685 17.4541C176.685 16.3454 176.939 15.3975 177.446 14.6104C177.954 13.8232 178.678 13.2223 179.617 12.8076C180.565 12.3844 181.682 12.1729 182.969 12.1729C183.934 12.1729 184.852 12.2871 185.724 12.5156C186.604 12.7357 187.522 13.0573 188.479 13.4805L187.209 16.54C186.354 16.193 185.588 15.9264 184.911 15.7402C184.234 15.5456 183.544 15.4482 182.842 15.4482C182.351 15.4482 181.932 15.5286 181.585 15.6895C181.238 15.8418 180.976 16.0618 180.798 16.3496C180.62 16.6289 180.531 16.9548 180.531 17.3271C180.531 17.7673 180.658 18.1396 180.912 18.4443C181.175 18.7406 181.564 19.0283 182.08 19.3076C182.605 19.5869 183.257 19.9128 184.035 20.2852C184.983 20.7337 185.791 21.2035 186.46 21.6943C187.137 22.1768 187.658 22.748 188.022 23.4082C188.385 24.0599 188.567 24.8724 188.567 25.8457ZM207.448 31L206.102 26.582H199.336L197.99 31H193.75L200.3 12.3633H205.112L211.688 31H207.448ZM205.163 23.2812L203.817 18.9648C203.732 18.6771 203.618 18.3089 203.474 17.8604C203.339 17.4033 203.199 16.9421 203.055 16.4766C202.92 16.0026 202.81 15.5921 202.725 15.2451C202.641 15.5921 202.522 16.0238 202.37 16.54C202.226 17.0479 202.086 17.5303 201.951 17.9873C201.815 18.4443 201.718 18.7702 201.659 18.9648L200.326 23.2812H205.163ZM219.897 31H215.961V15.7148H210.921V12.4395H224.937V15.7148H219.897V31ZM231.902 12.4395C233.586 12.4395 234.974 12.6426 236.066 13.0488C237.166 13.4551 237.983 14.0687 238.516 14.8896C239.049 15.7106 239.316 16.7474 239.316 18C239.316 18.8464 239.155 19.5869 238.833 20.2217C238.512 20.8564 238.088 21.3939 237.564 21.834C237.039 22.2741 236.472 22.6338 235.863 22.9131L241.322 31H236.954L232.524 23.8779H230.429V31H226.493V12.4395H231.902ZM231.622 15.6641H230.429V20.6787H231.699C233.002 20.6787 233.933 20.4629 234.491 20.0312C235.059 19.5911 235.342 18.9479 235.342 18.1016C235.342 17.2214 235.037 16.5951 234.428 16.2227C233.827 15.8503 232.892 15.6641 231.622 15.6641ZM253.72 31L252.374 26.582H245.607L244.262 31H240.022L246.572 12.3633H251.384L257.96 31H253.72ZM251.435 23.2812L250.089 18.9648C250.004 18.6771 249.89 18.3089 249.746 17.8604C249.611 17.4033 249.471 16.9421 249.327 16.4766C249.192 16.0026 249.082 15.5921 248.997 15.2451C248.913 15.5921 248.794 16.0238 248.642 16.54C248.498 17.0479 248.358 17.5303 248.223 17.9873C248.087 18.4443 247.99 18.7702 247.931 18.9648L246.598 23.2812H251.435ZM273.57 12.4395L267.261 31H262.97L256.673 12.4395H260.646L264.138 23.4844C264.197 23.6706 264.294 24.0218 264.43 24.5381C264.565 25.0459 264.7 25.5876 264.836 26.1631C264.98 26.7301 265.077 27.1999 265.128 27.5723C265.179 27.1999 265.267 26.7301 265.394 26.1631C265.53 25.596 265.661 25.0586 265.788 24.5508C265.923 24.0345 266.021 23.679 266.08 23.4844L269.597 12.4395H273.57ZM285.308 31H274.619V12.4395H285.308V15.6641H278.554V19.7393H284.839V22.9639H278.554V27.75H285.308V31ZM285.092 6.71387V6.98047C284.847 7.21745 284.525 7.50944 284.128 7.85645C283.73 8.20345 283.302 8.56738 282.845 8.94824C282.388 9.32064 281.94 9.68034 281.5 10.0273C281.06 10.3659 280.674 10.6494 280.344 10.8779H277.767V10.5352C278.047 10.2135 278.368 9.83268 278.732 9.39258C279.105 8.94401 279.473 8.48275 279.837 8.00879C280.201 7.53483 280.505 7.10319 280.751 6.71387H285.092ZM298.849 25.8457C298.849 26.946 298.582 27.9023 298.049 28.7148C297.516 29.5273 296.737 30.1536 295.713 30.5938C294.698 31.0339 293.462 31.2539 292.006 31.2539C291.363 31.2539 290.733 31.2116 290.115 31.127C289.505 31.0423 288.917 30.9196 288.35 30.7588C287.791 30.5895 287.258 30.3822 286.75 30.1367V26.4805C287.631 26.8698 288.545 27.221 289.493 27.5342C290.441 27.8473 291.38 28.0039 292.311 28.0039C292.954 28.0039 293.471 27.9193 293.86 27.75C294.258 27.5807 294.545 27.348 294.723 27.0518C294.901 26.7555 294.99 26.417 294.99 26.0361C294.99 25.5706 294.833 25.1729 294.52 24.8428C294.207 24.5127 293.775 24.2038 293.225 23.916C292.683 23.6283 292.07 23.3193 291.384 22.9893C290.953 22.7861 290.483 22.5407 289.975 22.2529C289.467 21.9567 288.985 21.597 288.528 21.1738C288.071 20.7507 287.694 20.2386 287.398 19.6377C287.11 19.0283 286.966 18.3005 286.966 17.4541C286.966 16.3454 287.22 15.3975 287.728 14.6104C288.236 13.8232 288.959 13.2223 289.899 12.8076C290.847 12.3844 291.964 12.1729 293.25 12.1729C294.215 12.1729 295.134 12.2871 296.005 12.5156C296.886 12.7357 297.804 13.0573 298.76 13.4805L297.491 16.54C296.636 16.193 295.87 15.9264 295.193 15.7402C294.516 15.5456 293.826 15.4482 293.124 15.4482C292.633 15.4482 292.214 15.5286 291.867 15.6895C291.52 15.8418 291.257 16.0618 291.08 16.3496C290.902 16.6289 290.813 16.9548 290.813 17.3271C290.813 17.7673 290.94 18.1396 291.194 18.4443C291.456 18.7406 291.846 19.0283 292.362 19.3076C292.887 19.5869 293.538 19.9128 294.317 20.2852C295.265 20.7337 296.073 21.2035 296.742 21.6943C297.419 22.1768 297.939 22.748 298.303 23.4082C298.667 24.0599 298.849 24.8724 298.849 25.8457ZM14.3711 64.2695C14.3711 66.1992 14 67.8125 13.2578 69.1094C12.5234 70.3984 11.457 71.3711 10.0586 72.0273C8.66016 72.6758 6.97656 73 5.00781 73H0.15625V55.8672H5.53516C7.33203 55.8672 8.89062 56.1875 10.2109 56.8281C11.5312 57.4609 12.5547 58.4023 13.2812 59.6523C14.0078 60.8945 14.3711 62.4336 14.3711 64.2695ZM10.5977 64.3633C10.5977 63.0977 10.4102 62.0586 10.0352 61.2461C9.66797 60.4258 9.12109 59.8203 8.39453 59.4297C7.67578 59.0391 6.78516 58.8438 5.72266 58.8438H3.78906V70H5.34766C7.12109 70 8.4375 69.5273 9.29688 68.582C10.1641 67.6367 10.5977 66.2305 10.5977 64.3633ZM26.1091 73H16.2419V55.8672H26.1091V58.8438H19.8747V62.6055H25.6755V65.582H19.8747V70H26.1091V73ZM42.6827 68.2422C42.6827 69.2578 42.4366 70.1406 41.9444 70.8906C41.4522 71.6406 40.7334 72.2188 39.7881 72.625C38.8506 73.0312 37.71 73.2344 36.3662 73.2344C35.7725 73.2344 35.1905 73.1953 34.6202 73.1172C34.0577 73.0391 33.5147 72.9258 32.9912 72.7773C32.4756 72.6211 31.9834 72.4297 31.5147 72.2031V68.8281C32.3272 69.1875 33.1709 69.5117 34.0459 69.8008C34.9209 70.0898 35.7881 70.2344 36.6475 70.2344C37.2412 70.2344 37.7178 70.1562 38.0772 70C38.4444 69.8438 38.71 69.6289 38.8741 69.3555C39.0381 69.082 39.1202 68.7695 39.1202 68.418C39.1202 67.9883 38.9756 67.6211 38.6866 67.3164C38.3975 67.0117 37.9991 66.7266 37.4912 66.4609C36.9912 66.1953 36.4248 65.9102 35.792 65.6055C35.3936 65.418 34.96 65.1914 34.4912 64.9258C34.0225 64.6523 33.5772 64.3203 33.1553 63.9297C32.7334 63.5391 32.3858 63.0664 32.1123 62.5117C31.8467 61.9492 31.7139 61.2773 31.7139 60.4961C31.7139 59.4727 31.9483 58.5977 32.417 57.8711C32.8858 57.1445 33.5537 56.5898 34.4209 56.207C35.2959 55.8164 36.3272 55.6211 37.5147 55.6211C38.4053 55.6211 39.253 55.7266 40.0577 55.9375C40.8702 56.1406 41.7178 56.4375 42.6006 56.8281L41.4287 59.6523C40.6397 59.332 39.9327 59.0859 39.3077 58.9141C38.6827 58.7344 38.0459 58.6445 37.3975 58.6445C36.9444 58.6445 36.5577 58.7188 36.2373 58.8672C35.917 59.0078 35.6748 59.2109 35.5108 59.4766C35.3467 59.7344 35.2647 60.0352 35.2647 60.3789C35.2647 60.7852 35.3819 61.1289 35.6162 61.4102C35.8584 61.6836 36.2178 61.9492 36.6944 62.207C37.1787 62.4648 37.7803 62.7656 38.4991 63.1094C39.3741 63.5234 40.1202 63.957 40.7373 64.4102C41.3623 64.8555 41.8428 65.3828 42.1787 65.9922C42.5147 66.5938 42.6827 67.3438 42.6827 68.2422ZM53.9753 73H44.1081V55.8672H53.9753V58.8438H47.7409V62.6055H53.5417V65.582H47.7409V70H53.9753V73ZM69.8266 55.8672V66.9531C69.8266 68.1328 69.5648 69.1992 69.0414 70.1523C68.5258 71.0977 67.7406 71.8477 66.6859 72.4023C65.6391 72.957 64.3187 73.2344 62.725 73.2344C60.4594 73.2344 58.7328 72.6562 57.5453 71.5C56.3578 70.3438 55.7641 68.8125 55.7641 66.9062V55.8672H59.3852V66.3555C59.3852 67.7695 59.6742 68.7617 60.2523 69.332C60.8305 69.9023 61.6859 70.1875 62.8187 70.1875C63.6156 70.1875 64.2602 70.0508 64.7523 69.7773C65.2523 69.5039 65.6195 69.082 65.8539 68.5117C66.0883 67.9414 66.2055 67.2148 66.2055 66.332V55.8672H69.8266ZM82.4552 68.2422C82.4552 69.2578 82.2091 70.1406 81.7169 70.8906C81.2247 71.6406 80.5059 72.2188 79.5606 72.625C78.6231 73.0312 77.4825 73.2344 76.1387 73.2344C75.545 73.2344 74.963 73.1953 74.3927 73.1172C73.8302 73.0391 73.2872 72.9258 72.7637 72.7773C72.2481 72.6211 71.7559 72.4297 71.2872 72.2031V68.8281C72.0997 69.1875 72.9434 69.5117 73.8184 69.8008C74.6934 70.0898 75.5606 70.2344 76.42 70.2344C77.0137 70.2344 77.4903 70.1562 77.8497 70C78.2169 69.8438 78.4825 69.6289 78.6466 69.3555C78.8106 69.082 78.8927 68.7695 78.8927 68.418C78.8927 67.9883 78.7481 67.6211 78.4591 67.3164C78.17 67.0117 77.7716 66.7266 77.2637 66.4609C76.7637 66.1953 76.1973 65.9102 75.5645 65.6055C75.1661 65.418 74.7325 65.1914 74.2637 64.9258C73.795 64.6523 73.3497 64.3203 72.9278 63.9297C72.5059 63.5391 72.1583 63.0664 71.8848 62.5117C71.6192 61.9492 71.4864 61.2773 71.4864 60.4961C71.4864 59.4727 71.7208 58.5977 72.1895 57.8711C72.6583 57.1445 73.3262 56.5898 74.1934 56.207C75.0684 55.8164 76.0997 55.6211 77.2872 55.6211C78.1778 55.6211 79.0255 55.7266 79.8302 55.9375C80.6427 56.1406 81.4903 56.4375 82.3731 56.8281L81.2012 59.6523C80.4122 59.332 79.7052 59.0859 79.0802 58.9141C78.4552 58.7344 77.8184 58.6445 77.17 58.6445C76.7169 58.6445 76.3302 58.7188 76.0098 58.8672C75.6895 59.0078 75.4473 59.2109 75.2833 59.4766C75.1192 59.7344 75.0372 60.0352 75.0372 60.3789C75.0372 60.7852 75.1544 61.1289 75.3887 61.4102C75.6309 61.6836 75.9903 61.9492 76.4669 62.207C76.9512 62.4648 77.5528 62.7656 78.2716 63.1094C79.1466 63.5234 79.8927 63.957 80.5098 64.4102C81.1348 64.8555 81.6153 65.3828 81.9512 65.9922C82.2872 66.5938 82.4552 67.3438 82.4552 68.2422ZM114.928 57.7217C114.928 61.0986 114.279 63.9219 112.98 66.1914C111.695 68.4473 109.829 70.1494 107.381 71.2979C104.934 72.4326 101.988 73 98.5424 73H90.0522V43.0176H99.4653C102.61 43.0176 105.337 43.5781 107.648 44.6992C109.958 45.8066 111.749 47.4541 113.021 49.6416C114.292 51.8154 114.928 54.5088 114.928 57.7217ZM108.325 57.8857C108.325 55.6709 107.997 53.8525 107.34 52.4307C106.698 50.9951 105.741 49.9355 104.469 49.252C103.211 48.5684 101.653 48.2266 99.7934 48.2266H96.4096V67.75H99.1371C102.241 67.75 104.544 66.9229 106.048 65.2686C107.566 63.6143 108.325 61.1533 108.325 57.8857ZM137.15 73H119.882V43.0176H137.15V48.2266H126.239V54.8096H136.391V60.0186H126.239V67.75H137.15V73ZM159.863 64.6738C159.863 66.4512 159.433 67.9961 158.571 69.3086C157.71 70.6211 156.452 71.6328 154.798 72.3438C153.157 73.0547 151.161 73.4102 148.81 73.4102C147.77 73.4102 146.752 73.3418 145.754 73.2051C144.769 73.0684 143.819 72.8701 142.903 72.6104C142.001 72.3369 141.14 72.002 140.319 71.6055V65.6992C141.741 66.3281 143.218 66.8955 144.749 67.4014C146.28 67.9072 147.798 68.1602 149.302 68.1602C150.341 68.1602 151.175 68.0234 151.804 67.75C152.446 67.4766 152.911 67.1006 153.198 66.6221C153.485 66.1436 153.629 65.5967 153.629 64.9814C153.629 64.2295 153.376 63.5869 152.87 63.0537C152.364 62.5205 151.667 62.0215 150.778 61.5566C149.903 61.0918 148.912 60.5928 147.805 60.0596C147.107 59.7314 146.349 59.335 145.528 58.8701C144.708 58.3916 143.929 57.8105 143.19 57.127C142.452 56.4434 141.844 55.6162 141.365 54.6455C140.9 53.6611 140.668 52.4854 140.668 51.1182C140.668 49.3271 141.078 47.7959 141.898 46.5244C142.719 45.2529 143.888 44.2822 145.405 43.6123C146.936 42.9287 148.741 42.5869 150.819 42.5869C152.378 42.5869 153.861 42.7715 155.269 43.1406C156.691 43.4961 158.175 44.0156 159.72 44.6992L157.669 49.6416C156.288 49.0811 155.051 48.6504 153.957 48.3496C152.863 48.0352 151.749 47.8779 150.614 47.8779C149.821 47.8779 149.144 48.0078 148.584 48.2676C148.023 48.5137 147.6 48.8691 147.312 49.334C147.025 49.7852 146.882 50.3115 146.882 50.9131C146.882 51.624 147.087 52.2256 147.497 52.7178C147.921 53.1963 148.55 53.6611 149.384 54.1123C150.231 54.5635 151.284 55.0898 152.542 55.6914C154.073 56.416 155.379 57.1748 156.459 57.9678C157.553 58.7471 158.394 59.6699 158.981 60.7363C159.569 61.7891 159.863 63.1016 159.863 64.6738ZM181.305 73H164.038V43.0176H181.305V48.2266H170.395V54.8096H180.547V60.0186H170.395V67.75H181.305V73ZM212.919 73H204.839L191.796 50.3184H191.612C191.666 51.2617 191.714 52.2119 191.755 53.1689C191.796 54.126 191.837 55.083 191.878 56.04C191.919 56.9834 191.96 57.9336 192.001 58.8906V73H186.321V43.0176H194.339L207.362 65.4736H207.505C207.478 64.5439 207.444 63.6211 207.403 62.7051C207.362 61.7891 207.321 60.873 207.28 59.957C207.252 59.041 207.225 58.125 207.198 57.209V43.0176H212.919V73ZM243.795 73H237.458V60.0596H225.584V73H219.227V43.0176H225.584V54.7686H237.458V43.0176H243.795V73ZM277.337 57.9678C277.337 60.2783 277.05 62.3838 276.476 64.2842C275.901 66.1709 275.026 67.7979 273.851 69.165C272.688 70.5322 271.212 71.585 269.421 72.3232C267.63 73.0479 265.511 73.4102 263.063 73.4102C260.616 73.4102 258.497 73.0479 256.706 72.3232C254.915 71.585 253.432 70.5322 252.256 69.165C251.094 67.7979 250.226 66.1641 249.651 64.2637C249.077 62.3633 248.79 60.251 248.79 57.9268C248.79 54.8232 249.296 52.123 250.308 49.8262C251.333 47.5156 252.905 45.7246 255.024 44.4531C257.144 43.1816 259.837 42.5459 263.104 42.5459C266.358 42.5459 269.031 43.1816 271.123 44.4531C273.229 45.7246 274.787 47.5156 275.799 49.8262C276.824 52.1367 277.337 54.8506 277.337 57.9678ZM255.455 57.9678C255.455 60.0596 255.715 61.8643 256.234 63.3818C256.768 64.8857 257.595 66.0479 258.716 66.8682C259.837 67.6748 261.286 68.0781 263.063 68.0781C264.868 68.0781 266.331 67.6748 267.452 66.8682C268.573 66.0479 269.387 64.8857 269.893 63.3818C270.412 61.8643 270.672 60.0596 270.672 57.9678C270.672 54.8232 270.084 52.3486 268.908 50.5439C267.732 48.7393 265.798 47.8369 263.104 47.8369C261.313 47.8369 259.851 48.2471 258.716 49.0674C257.595 49.874 256.768 51.0361 256.234 52.5537C255.715 54.0576 255.455 55.8623 255.455 57.9678ZM299.989 64.6738C299.989 66.4512 299.558 67.9961 298.697 69.3086C297.836 70.6211 296.578 71.6328 294.924 72.3438C293.283 73.0547 291.287 73.4102 288.935 73.4102C287.896 73.4102 286.878 73.3418 285.88 73.2051C284.895 73.0684 283.945 72.8701 283.029 72.6104C282.127 72.3369 281.265 72.002 280.445 71.6055V65.6992C281.867 66.3281 283.344 66.8955 284.875 67.4014C286.406 67.9072 287.924 68.1602 289.427 68.1602C290.467 68.1602 291.301 68.0234 291.929 67.75C292.572 67.4766 293.037 67.1006 293.324 66.6221C293.611 66.1436 293.755 65.5967 293.755 64.9814C293.755 64.2295 293.502 63.5869 292.996 63.0537C292.49 62.5205 291.793 62.0215 290.904 61.5566C290.029 61.0918 289.038 60.5928 287.93 60.0596C287.233 59.7314 286.474 59.335 285.654 58.8701C284.834 58.3916 284.054 57.8105 283.316 57.127C282.578 56.4434 281.969 55.6162 281.491 54.6455C281.026 53.6611 280.794 52.4854 280.794 51.1182C280.794 49.3271 281.204 47.7959 282.024 46.5244C282.844 45.2529 284.013 44.2822 285.531 43.6123C287.062 42.9287 288.867 42.5869 290.945 42.5869C292.504 42.5869 293.987 42.7715 295.395 43.1406C296.817 43.4961 298.301 44.0156 299.845 44.6992L297.795 49.6416C296.414 49.0811 295.177 48.6504 294.083 48.3496C292.989 48.0352 291.875 47.8779 290.74 47.8779C289.947 47.8779 289.27 48.0078 288.71 48.2676C288.149 48.5137 287.725 48.8691 287.438 49.334C287.151 49.7852 287.008 50.3115 287.008 50.9131C287.008 51.624 287.213 52.2256 287.623 52.7178C288.047 53.1963 288.676 53.6611 289.51 54.1123C290.357 54.5635 291.41 55.0898 292.668 55.6914C294.199 56.416 295.505 57.1748 296.585 57.9678C297.678 58.7471 298.519 59.6699 299.107 60.7363C299.695 61.7891 299.989 63.1016 299.989 64.6738Z" fill="white"/>
</svg>
